<svg xmlns="http://www.w3.org/2000/svg" xmlns:xlink="http://www.w3.org/1999/xlink" width="667" zoomAndPan="magnify" viewBox="0 0 500.25 500.249987" height="667" preserveAspectRatio="xMidYMid meet" version="1.0"><path fill="#d9d9d9" d="M 239.710938 122.652344 C 222.722656 125.0625 211.75 128.136719 199.710938 133.757812 C 175.09375 145.53125 155.832031 160.914062 140.980469 181.382812 C 124.660156 203.457031 116.765625 233.691406 119.308594 263.925781 L 120.246094 275.832031 L 123.1875 267.804688 C 130.277344 248.140625 148.605469 222.320312 168.675781 203.457031 C 193.824219 179.644531 219.109375 166.933594 247.070312 163.992188 C 254.027344 163.1875 261.921875 161.449219 264.460938 160.246094 C 274.628906 154.894531 287.203125 155.832031 301.253906 162.652344 C 305.667969 164.929688 311.285156 168.539062 313.695312 170.949219 C 318.910156 176.03125 319.179688 174.425781 315.164062 162.519531 C 310.347656 148.070312 299.511719 134.425781 288.273438 128.539062 C 279.042969 123.722656 253.894531 120.644531 239.710938 122.652344 Z M 239.710938 122.652344 " fill-opacity="1" fill-rule="nonzero"/><path fill="#d9d9d9" d="M 332.824219 156.5 C 343.257812 178.976562 343.257812 211.617188 332.957031 235.964844 C 330.953125 240.648438 328.945312 244.394531 328.542969 244.394531 C 328.007812 244.394531 327.339844 242.65625 326.9375 240.515625 C 324.929688 230.882812 317.441406 214.695312 311.6875 207.738281 C 304.464844 198.910156 290.683594 188.472656 280.648438 184.328125 C 272.488281 180.847656 252.554688 178.441406 242.523438 179.644531 C 233.023438 180.714844 224.59375 183.257812 215.632812 187.671875 C 206.9375 191.953125 179.242188 216.835938 165.0625 233.289062 C 149.140625 251.753906 137.367188 279.179688 137.367188 298.175781 C 137.367188 307.273438 136.164062 307.808594 129.742188 301.652344 L 125.328125 297.371094 L 126.53125 301.519531 C 131.347656 318.109375 149.140625 343.527344 165.863281 357.707031 C 170.414062 361.589844 174.558594 364.796875 175.09375 364.796875 C 175.628906 364.796875 174.023438 360.382812 171.617188 355.03125 C 164.257812 339.246094 162.253906 328.945312 162.253906 309.277344 C 162.253906 290.550781 163.992188 281.183594 170.414062 267.40625 L 173.890625 259.78125 L 175.496094 267.136719 C 178.839844 282.390625 181.785156 289.480469 188.207031 298.175781 C 203.324219 318.644531 225.933594 330.015625 251.617188 330.015625 C 265.933594 330.015625 274.363281 327.875 287.875 320.917969 C 295.367188 317.039062 301.253906 312.089844 316.636719 296.570312 C 327.339844 285.867188 338.84375 273.691406 342.324219 269.679688 C 355.300781 254.429688 364.53125 234.894531 367.472656 215.898438 C 369.214844 205.730469 369.347656 205.464844 372.558594 206.265625 C 375.636719 207.070312 375.769531 206.800781 374.964844 203.324219 C 373.09375 195.5625 366.539062 184.726562 356.101562 172.285156 C 346.738281 161.183594 332.691406 148.339844 329.746094 148.070312 C 329.210938 148.070312 330.550781 151.953125 332.824219 156.5 Z M 332.824219 156.5 " fill-opacity="1" fill-rule="nonzero"/><path fill="#d9d9d9" d="M 378.578125 246.804688 C 371.621094 264.460938 355.433594 286.402344 334.296875 306.46875 C 323.191406 317.039062 316.503906 321.988281 302.589844 329.882812 C 288.140625 338.175781 273.558594 342.992188 256.300781 345.265625 C 246.667969 346.46875 242.523438 347.675781 239.175781 350.214844 C 227.40625 358.914062 199.578125 348.746094 186.867188 331.085938 C 182.1875 324.664062 181.785156 326.269531 184.863281 338.980469 C 191.148438 365.601562 208.273438 382.726562 233.425781 387.542969 C 245.332031 389.949219 273.15625 388.613281 285.332031 385 C 328.277344 372.691406 364.53125 339.246094 376.707031 301.253906 C 383.125 281.453125 385.9375 257.90625 383.929688 243.058594 L 382.859375 235.699219 Z M 378.578125 246.804688 " fill-opacity="1" fill-rule="nonzero"/></svg>